<svg width="2274" height="1652" viewBox="0 0 2274 1652" fill="none" xmlns="http://www.w3.org/2000/svg">
<path d="M252 651L452 852V1651H252V651Z" fill="#126210"/>
<path d="M1601.5 0L943.082 659.775L943.506 660.199L803.341 800.426L1 0.227539H147.525L283.516 0.5L801.634 518.39L1321 0H1601.5Z" fill="#126210"/>
<path d="M1631.35 252.839L1631.58 500.532L1642.49 498.706L1653.4 497.492L1675.22 496.291L1686.13 496.304L1697.56 496.317L1702.75 496.936L1708.47 497.556L1719.9 498.182L1731.32 500.035L1743.27 501.888L1766.12 507.432L1786.89 513.587L1807.14 521.581L1826.35 530.8L1845.05 540.631L1862.7 551.687L1879.3 563.969L1895.4 576.249L1909.93 589.754L1923.94 603.872L1938.46 619.829L2086.2 447.719L2076.34 436.058L2064.93 423.783L2042.1 400.459L2017.71 378.359L1989.16 355.641L1962.69 337.218L1935.17 320.019L1920.64 312.032L1905.58 304.044L1890.52 296.669L1875.47 289.908L1846.39 278.838L1815.23 268.993L1784.59 261.6L1753.94 256.047L1722.78 252.945L1707.71 251.701L1692.13 251.07L1677.06 251.053L1662 251.035L1631.35 252.839Z" fill="white" stroke="white" stroke-width="3"/>
<path d="M1631 1.34851V201.642C1840.61 208.517 1977.43 273.217 2112.84 416.349L2254 276.69C2258.11 271.989 2113.61 132.448 1973.18 71.9234C1823.17 7.27492 1631.91 -4.57371 1631 1.34851Z" fill="#126210"/>
<path d="M1601 1644.5L1401 1584V531.805L942.082 991.67L942.506 992.094L802.341 1132.32L201 532.585V1651H1V333.119L0 332.122H1V51L102.5 151L201 251.5L800.62 850.383L1401.05 251.443L1499.5 151L1601 51V1644.5Z" fill="white"/>
<path d="M1102 902L951 1051.5C964.326 1104.97 1017.65 1231.87 1053 1280C1094.22 1342.62 1120.34 1373.31 1169 1425C1237.5 1491.38 1280.52 1522.51 1364.5 1568.5C1451.81 1610.24 1503.22 1627.15 1600 1644C1716.8 1657.39 1782.08 1653.6 1898 1625C1985.92 1598.24 2031.19 1577.74 2106 1533C2178.48 1483.21 2215.11 1451.3 2273.5 1387L2138 1251.5C2061.6 1335.17 2010.02 1366.45 1912 1411.5C1822.94 1446.71 1764.48 1451.98 1658.5 1450C1567.91 1440.47 1519.88 1424.6 1437.5 1384.5C1354.79 1336.67 1312.71 1303.63 1249.5 1227.5C1187.44 1146.85 1133.58 999.694 1102 902Z" fill="#126210"/>
</svg>
